<?xml version="1.0" encoding="UTF-8" standalone="no"?>
<!-- Created with Inkscape (http://www.inkscape.org/) -->
<svg
   xmlns:svg="http://www.w3.org/2000/svg"
   xmlns="http://www.w3.org/2000/svg"
   version="1.0"
   width="254.85376"
   height="254.83578"
   id="svg2506"
   xml:space="preserve"><defs
     id="defs2509" /><path
     d="M 0,127.40177 C 0,57.024388 57.060875,6.3118934e-15 127.4405,6.3118934e-15 C 197.82012,6.3118934e-15 254.85376,57.024388 254.85376,127.40177 C 254.85376,197.77915 197.82012,254.83579 127.4405,254.83579 C 57.060875,254.83579 0,197.77915 0,127.40177"
     id="bg_weiss"
     style="fill:#ffffff;fill-opacity:1;fill-rule:nonzero;stroke:none" /><path
     d="M 214.59793,162.13892 C 198.66446,197.97268 168.07765,222.87247 128.01246,223.45303 C 98.81472,223.84006 73.048812,213.84145 54.44615,196.4245 L 43.1974,201.23029 L 43.224638,183.81334 C 30.968125,167.26724 23.859337,146.36689 23.859337,122.59598 C 23.859337,61.733413 70.461325,13.772288 135.47533,13.772288 C 146.0704,13.772288 155.65771,15.417226 162.90268,17.062163 C 151.76286,13.514263 140.67754,11.57905 128.36655,11.57905 C 58.613362,11.57905 11.6573,68.151876 11.6573,126.46642 C 11.6573,190.03829 61.527687,243.289 126.97748,243.289 C 189.51292,243.289 223.23196,199.23057 234.01769,172.71809 L 214.59793,162.13892"
     id="blau"
     style="fill:#0d4d84;fill-opacity:1;fill-rule:nonzero;stroke:none" /><g
     transform="translate(-10.08875,-2.5e-6)"
     id="burger"><path
       d="M 194.29052,44.219703 C 194.83525,42.897303 193.71855,41.574902 193.71855,41.574902 C 193.71855,41.574902 185.11175,26.931765 154.66113,23.706402 C 138.34635,21.964715 116.14844,25.254578 100.59629,33.640515 C 72.406312,48.831965 68.184612,73.860777 68.184612,73.860777 C 68.0212,74.47359 67.748837,76.344302 68.375275,77.15064 C 69.02895,77.956978 69.982237,77.924728 71.126187,77.53769 C 81.094812,74.183315 110.75558,64.345953 129.46719,59.378902 C 156.10467,52.315365 177.97574,48.025628 192.00264,45.638865 C 193.0104,45.44534 193.90921,45.122803 194.29052,44.219703"
       id="burger_oben"
       style="fill:#f6970f;fill-opacity:1;fill-rule:nonzero;stroke:none" /><path
       d="M 91.66265,192.71534 C 91.008975,194.199 92.506987,195.68266 92.506987,195.68266 C 98.798662,203.61705 126.85246,213.64793 157.27585,206.2941 C 203.76889,195.06985 213.5741,162.20342 214.69081,157.52664 C 214.9087,156.59129 215.09936,155.07537 214.22779,154.17226 C 213.49239,153.39818 212.43016,153.39818 210.98661,153.72071 C 178.71114,161.30032 125.00036,177.7174 94.032238,190.97364 C 92.69765,191.5542 92.0712,191.74773 91.66265,192.71534"
       id="burger_unten"
       style="fill:#f6970f;fill-opacity:1;fill-rule:nonzero;stroke:none" /></g><path
     d="M 96.77198,33.350238 C 79.694562,40.897576 68.146212,58.862838 67.519762,66.442438 C 67.274637,69.474276 71.278425,69.925825 71.659737,66.700463 C 75.254988,52.831413 86.28585,39.768701 96.77198,33.350238 M 153.39706,46.251676 C 162.60307,43.993926 167.6691,43.639138 167.75081,39.510676 C 167.91422,32.640651 148.24934,24.641763 130.24587,26.093176 C 148.60341,27.318813 159.60704,34.382351 159.66151,39.31715 C 159.68875,42.4135 156.99231,45.155051 153.39706,46.251676 M 159.08954,198.61774 C 172.92577,193.16689 186.21729,182.78123 193.5712,167.23498 C 195.69566,162.71948 189.5674,160.42946 187.82425,165.71906 C 183.52085,176.78205 174.66892,189.748 159.08954,198.61774"
     id="glanzstriche"
     style="fill:#ffffff;fill-opacity:1;fill-rule:nonzero;stroke:none" /><path
     d="M 198.41933,149.59225 C 207.5981,148.52789 213.94425,144.85098 217.43054,141.43209 C 220.61724,138.30349 221.35262,134.01376 221.35262,130.82065 C 221.48881,126.14388 221.35262,111.33946 221.35262,111.33946 L 197.08472,116.59682 C 197.08472,116.59682 197.08472,118.43526 197.05749,122.27344 C 197.11196,126.01487 198.90959,128.04684 202.85891,127.33727 C 204.08456,127.14374 205.99113,126.53093 205.99113,126.53093 L 206.01836,131.17544 C 205.99113,131.04643 206.37244,133.75573 200.24419,134.94912 C 192.2366,136.207 188.61411,131.30445 188.50517,122.59598 C 188.66859,113.24243 193.95251,107.88834 200.35314,106.40467 C 207.54362,104.75973 211.62912,106.46918 214.02595,106.82396 C 222.06077,108.0496 224.34866,95.98675 217.02199,93.148425 C 211.60189,90.987438 204.60206,90.568138 197.90182,91.922788 C 188.9682,93.696738 171.42776,101.17958 171.37329,125.46655 C 171.42776,144.75422 185.64531,151.04366 198.41933,149.59225 M 119.51461,170.26682 C 119.51461,170.26682 126.95024,167.71879 127.60391,167.49302 C 133.59599,165.42878 135.77493,161.84863 135.74769,155.68819 C 135.66597,149.01169 135.66597,135.94898 135.66597,135.94898 L 152.98851,155.91397 C 155.7939,158.81679 159.30744,159.07482 162.5486,158.13947 C 165.87147,157.1396 168.64961,154.10776 168.73133,149.78578 C 168.75856,135.36842 168.73133,100.21198 168.73133,100.21198 C 168.73133,100.21198 164.26451,101.14733 160.53309,102.2117 C 156.25692,103.40508 152.98851,106.14664 152.98851,113.33919 C 152.98851,115.88723 152.96129,130.49811 152.96129,130.49811 C 152.96129,130.49811 143.23778,118.274 136.83716,111.88778 C 133.43257,108.50115 127.79457,110.53313 127.79457,110.53313 L 119.48739,113.04891 L 119.51461,170.26682 M 114.25794,114.33905 C 114.25794,114.33905 109.05573,115.85498 104.8068,117.40315 C 99.27775,119.40288 96.1183,122.59598 96.1183,130.91741 C 96.1183,138.59378 96.09106,178.45924 96.09106,178.45924 C 96.09106,178.45924 100.91195,176.8143 105.43325,175.13711 C 111.83387,172.71809 114.2307,169.42823 114.2307,162.68723 C 114.2307,156.91383 114.25794,114.33905 114.25794,114.33905 M 88.383075,125.66008 C 83.589412,123.46683 79.476675,125.9181 77.733525,128.59515 L 63.025713,153.62395 L 62.998475,133.43319 L 45.6487,140.62575 L 45.594225,197.68239 L 57.796262,192.55406 C 57.796262,192.55406 60.1931,191.87674 61.636637,189.61899 C 62.971238,187.5225 62.944,184.00687 62.944,184.00687 L 62.944,165.91258 L 76.616825,180.39445 C 79.612862,183.52305 85.114675,185.10348 89.99004,181.16854 C 94.37515,177.62064 93.69423,171.58921 91.24292,168.87991 L 78.795762,156.33327 C 78.795762,156.33327 89.744912,139.07758 91.54254,136.207 C 93.91212,132.36883 92.71371,127.62754 88.383075,125.66008 M 54.010363,117.95147 C 53.983125,114.7906 51.531825,113.08116 47.310137,115.2099 L 47.2829,125.30529 C 47.2829,125.30529 48.644737,124.69246 49.652488,124.24092 C 52.131037,123.07979 54.064837,121.0478 54.010363,117.95147 M 47.228425,108.79144 C 47.963812,108.50115 48.535788,108.24313 49.162238,107.95284 C 51.450112,106.82396 53.084312,104.75973 53.084312,102.08268 C 53.11155,99.050838 50.605775,98.2445 47.228425,100.01845 L 47.228425,108.79144 z M 65.0957,116.50005 C 65.231887,124.46669 59.484938,128.72416 51.99485,131.82052 L 36.660587,138.33574 L 36.63335,96.793088 C 36.63335,96.793088 46.302375,92.8259 49.461837,91.697012 C 58.422712,88.439401 63.679387,92.374351 63.679387,98.341263 C 63.679387,102.34071 61.963475,105.72734 58.259287,108.72693 C 61.909,109.33975 65.041225,112.33933 65.0957,116.50005 M 94.23896,81.408113 C 94.23896,77.924726 91.8149,76.989375 88.900575,77.827963 C 86.558212,78.505288 83.807312,79.569663 83.807312,79.569663 L 83.780075,105.4048 C 83.752837,107.98509 83.371525,111.21045 80.184825,111.98454 C 77.760762,112.59737 76.616825,110.98468 76.616825,108.40439 L 76.56235,87.278276 C 76.56235,83.762625 74.138287,82.698263 71.22395,83.665863 C 67.95555,84.762488 65.994512,85.536575 65.994512,85.536575 C 65.994512,85.536575 66.02175,103.82438 65.994512,111.14595 C 65.940037,119.72542 71.877637,124.01514 80.892988,121.33809 C 88.818862,118.98358 94.13001,114.53258 94.23896,103.1148 L 94.23896,81.408113 M 179.46259,92.084063 C 181.7777,91.600262 183.19401,89.987575 183.19401,87.181513 C 183.19401,84.665725 183.19401,82.730513 183.19401,82.730513 L 170.77407,85.472075 L 170.77407,78.1505 C 170.77407,78.1505 176.8751,76.860351 178.59101,76.473313 C 180.71547,76.021763 181.83218,74.860638 181.83218,72.409363 C 181.83218,70.1516 181.80494,68.184138 181.80494,68.184138 L 170.77407,70.538651 L 170.77407,64.733 C 170.77407,64.733 176.52103,63.539613 179.59877,62.894538 C 181.9956,62.378488 182.8127,60.733551 182.8127,58.443538 C 182.8127,56.992126 182.8127,54.05705 182.8127,54.05705 C 177.33813,55.024663 166.87924,57.12115 160.34242,58.604813 L 160.26071,96.502813 C 160.26071,96.502813 172.65341,93.567726 179.46259,92.084063 M 107.58495,90.568138 C 107.58495,90.568138 113.74044,87.375038 113.65872,82.343474 C 113.60425,78.021488 109.6277,78.989101 107.58495,79.730926 L 107.58495,90.568138 z M 107.58495,96.406051 C 107.58495,96.406051 107.55771,103.66311 107.55771,106.59819 C 107.53047,109.33975 105.65114,111.30722 103.28155,112.24258 C 103.28155,112.30708 103.28155,112.14581 103.28155,112.24258 C 101.29327,112.9199 97.09881,114.33905 97.09881,114.33905 L 97.09881,75.344438 C 97.09881,75.344438 105.81456,72.312601 110.93506,71.119213 C 118.88817,69.280763 124.55341,72.893163 124.44446,79.311625 C 124.38999,85.439813 120.9854,89.148988 117.90765,91.697012 L 124.63511,98.147738 C 126.70511,100.14747 126.86852,103.79213 124.52617,105.98536 C 123.16434,107.27552 119.46015,108.63017 116.57305,105.66284 L 107.58495,96.406051 M 195.66842,69.571038 C 195.66842,69.571038 201.7422,67.281038 201.6605,62.410738 C 201.60602,58.314525 197.54775,59.056363 195.64119,59.475663 L 195.66842,69.571038 z M 185.4819,90.955188 L 185.50914,53.541001 C 185.50914,53.541001 196.43105,51.605776 199.23642,51.250988 C 207.0806,50.251126 212.33727,54.605363 212.22834,60.765801 C 212.17386,66.216663 208.76927,69.474276 205.88219,71.441751 C 205.88219,71.441751 211.19334,77.440926 212.60965,79.021351 C 214.54345,81.150088 214.46174,84.826999 211.62912,86.60095 C 208.82375,88.374901 206.07284,87.439538 204.46587,85.665588 L 195.66842,75.376688 C 195.66842,75.376688 195.69566,81.698401 195.69566,84.472213 C 195.66842,87.213763 194.06145,89.245738 191.2016,89.826313 L 185.4819,90.955188 M 157.80941,75.247675 L 142.31174,78.763326 C 142.31174,78.763326 142.31174,80.40825 142.2845,83.085301 C 142.31174,85.085026 143.72804,86.375176 145.74356,85.955876 C 147.02369,85.69785 148.03144,85.472075 148.03144,85.472075 L 148.05867,89.7618 C 148.08591,91.471238 145.52566,92.600126 142.8837,92.535613 C 139.15227,92.438851 137.10953,89.536026 137.02781,84.052913 C 137.164,76.828101 140.56859,72.570626 145.19882,71.409501 C 147.51394,70.796675 149.61116,71.086963 151.24537,71.312738 C 155.22193,71.957813 157.53705,70.022588 157.61876,66.732725 C 157.70046,63.184826 154.56825,60.991576 147.84079,61.249613 C 133.24191,61.733413 125.77906,72.215838 125.77906,84.730238 C 125.77906,97.534925 134.16796,103.21157 144.38172,101.34085 C 150.1559,100.17972 153.01575,98.309013 155.00404,96.567312 C 156.99231,94.825613 157.80941,92.213075 157.80941,89.987575 L 157.80941,75.247675 M 227.97114,154.011 L 229.52364,154.011 C 230.36798,154.011 231.45744,154.17226 231.45744,155.17213 C 231.45744,156.301 230.66757,156.46228 229.60535,156.46228 L 227.97114,156.46228 L 227.97114,154.011 z M 226.11905,161.88088 L 227.97114,161.88088 L 227.97114,157.91369 L 229.11509,157.91369 L 231.40296,161.88088 L 233.33677,161.88088 L 230.831,157.81693 C 232.22006,157.68791 233.2823,157.04284 233.2823,155.3334 C 233.2823,153.30142 231.97494,152.55959 229.63259,152.55959 L 226.11905,152.55959 L 226.11905,161.88088 z M 220.86236,157.23636 C 220.86236,162.33243 224.92064,165.59005 229.44192,165.59005 C 233.96321,165.59005 237.99425,162.33243 237.99425,157.23636 C 237.99425,152.17254 233.96321,148.91493 229.44192,148.91493 C 224.92064,148.91493 220.86236,152.17254 220.86236,157.23636 M 223.15025,157.23636 C 223.15025,153.43044 225.92839,150.68888 229.44192,150.68888 C 232.90099,150.68888 235.7336,153.43044 235.7336,157.23636 C 235.7336,161.04229 232.90099,163.8161 229.44192,163.8161 C 225.92839,163.8161 223.15025,161.04229 223.15025,157.23636"
     id="text"
     style="fill:#b20c35;fill-opacity:1;fill-rule:nonzero;stroke:none" /></svg>